PathFileType	4	(X/Y/Z)	C:\Users\WrightLab\Desktop\Jo\P1_boxCal5.trc
DataRate	CameraRate	NumFrames	NumMarkers	Units	OrigDataRate	OrigDataStartFrame	OrigNumFrames
100.00	100.00	       23	19	mm	100.00	245	       976
Frame#	Time	Headset_Front			Headset_Back			Headset_Left			Headset_Right			Left_Shoulder			Right_Shoulder			Sternum			C7			Left Elbow			Right Elbow			Left Wrist			Right Wrist			Left ASIS			Right ASIS			S2			Left Knee			Right Knee			Left Ankle			Right Ankle			
		X1	Y1	Z1	X2	Y2	Z2	X3	Y3	Z3	X4	Y4	Z4	X5	Y5	Z5	X6	Y6	Z6	X7	Y7	Z7	X8	Y8	Z8	X9	Y9	Z9	X10	Y10	Z10	X11	Y11	Z11	X12	Y12	Z12	X13	Y13	Z13	X14	Y14	Z14	X15	Y15	Z15	X16	Y16	Z16	X17	Y17	Z17	X18	Y18	Z18	X19	Y19	Z19	

245	2.440							-932.53210	456.58084	386.37851	-895.17413	1463.55615	449.90588							-1049.63916	971.96478	249.59961	-885.74835	82.57554	410.33859	-809.76062	1514.58057	590.69104	-658.69263	905.01599	342.26584	-794.10535	1269.36987	612.63599	-492.38467	1020.45697	530.76117	-548.45374	457.65198	419.27643				-554.78400	226.44904	689.27698	-858.30518	900.04858	317.52930	-597.23346	1285.59290	489.97595	-472.41412	996.92908	272.22543	-975.60205	1262.58789	504.44720	
246	2.450							-934.54767	455.88715	384.61462	-896.92206	1464.51038	440.84262							-1050.57263	974.15619	239.07239	-886.21643	82.99373	410.29880	-811.90759	1516.06665	582.09875	-659.64923	905.14630	334.92520	-796.07672	1270.33557	604.25494	-494.22806	1021.06787	523.14514	-549.87573	461.71710	401.28503				-556.83044	228.86591	672.69098	-859.61633	900.01605	310.95285	-599.37689	1285.97925	481.66974	-473.10315	998.10236	264.22580	-977.28815	1263.78711	494.78156	
247	2.460							-935.11017	454.11865	384.36816	-898.67816	1465.18225	431.83994							-1051.70459	976.77997	228.83990	-886.25739	83.06873	410.52927	-813.79028	1516.35242	573.32709	-660.98950	905.63177	327.14978	-798.44183	1271.88342	596.10345	-495.92642	1021.35712	515.68219	-551.65271	464.64832	384.79568				-559.08600	230.25241	654.53400	-860.76294	900.39709	302.15662	-600.69745	1286.83655	475.13406	-473.51785	999.22131	256.49554	-979.30457	1264.86169	485.64777	
248	2.470							-935.73102	453.74951	384.28604	-900.21338	1465.97925	422.98569							-1052.00916	979.44110	217.59239	-886.32648	83.23903	410.82175	-815.58612	1517.88074	564.24664	-661.62238	905.68268	319.40762	-800.90759	1273.63379	587.78021	-498.17117	1022.52197	508.71658	-552.97156	467.98520	368.66299				-561.40503	230.28792	635.03857	-861.67767	900.71747	296.79153	-602.67169	1287.95044	466.12460	-474.43433	1000.15302	249.28221	-980.93756	1266.18481	476.64410	
249	2.480							-936.43085	453.93552	383.63934	-901.69836	1466.91724	414.03638							-1052.41968	981.88458	207.74686	-886.51538	83.36153	411.57571	-818.48224	1519.10999	555.98132	-662.18005	906.29565	312.57849	-802.69281	1274.58875	579.54938	-500.08084	1023.33575	500.86688	-554.54340	471.15860	353.06744				-563.80939	229.25108	615.48151	-863.26483	900.17194	291.36255	-603.84113	1288.42700	458.39859	-475.21228	1001.17065	242.64450	-982.78589	1267.50000	467.99997	
250	2.490							-936.12378	453.73492	383.49365	-902.98413	1467.83044	405.28531							-1052.23682	983.69000	198.01358	-886.49457	83.80701	412.31366	-819.68414	1520.63696	547.21991	-664.03540	907.37903	304.22980	-804.71851	1276.09961	571.46826	-502.00604	1023.76093	493.04343	-556.18286	474.54565	338.34763				-566.60828	226.60028	595.53363	-863.57684	901.06885	283.74445	-605.47131	1289.23547	451.23856	-476.16080	1002.67065	234.15929	-984.09619	1268.88269	458.83618	
251	2.500							-935.37921	453.29712	381.75241	-904.53015	1468.73767	396.67133							-1052.25220	985.53748	188.53589	-886.55933	84.35231	413.12775	-820.94958	1521.61902	538.27228	-664.34619	907.62585	297.21796	-806.64996	1277.32642	563.22980	-503.91602	1024.71240	486.39615	-558.81982	479.10312	323.59244				-568.26801	222.40727	574.33740	-864.39410	900.80304	278.03067	-607.00012	1290.61011	443.18643	-476.79300	1003.22333	227.73698	-985.50464	1270.21509	450.45441	
252	2.510							-935.71515	453.03915	380.39932	-905.44916	1469.93848	387.95251							-1051.94763	987.58435	178.57361	-886.88397	84.59818	414.29514	-822.62939	1523.09741	529.76520	-665.30164	909.51068	289.38141	-808.22394	1278.74731	555.15271	-505.05069	1025.65930	479.37955	-561.35541	482.68378	310.51221				-570.96490	217.54414	554.78461	-864.94458	901.92224	268.96899	-608.30878	1291.36597	436.50150	-477.63782	1003.41821	220.75229	-987.11371	1271.65356	441.96979	
253	2.520							-936.34216	452.94742	378.04926	-906.96967	1470.64490	379.49896							-1051.28149	989.02722	169.73759	-887.18408	85.24439	414.52258	-824.34827	1524.25330	521.57068	-666.59784	910.30261	282.55533	-809.41925	1279.21509	546.89368	-507.20703	1026.06604	472.72379	-563.71960	486.75830	298.29846				-572.20300	211.03564	532.62561	-866.15106	902.19800	263.39096	-609.65668	1292.28857	428.04480	-478.43405	1004.40247	213.30634	-988.34265	1273.09302	433.67892	
254	2.530							-937.17529	452.96509	375.21729	-907.45782	1471.48901	370.64902							-1050.33228	990.64368	159.82697	-887.41260	85.73953	415.13141	-825.15710	1524.99182	512.50391	-667.90320	912.18622	274.26620	-811.59155	1280.89990	538.94720	-509.08112	1027.35986	465.36667	-566.63647	489.78970	287.27817				-574.70245	204.43405	511.20334	-867.58691	903.31158	257.97040	-611.08002	1292.84180	421.24133	-479.84534	1004.48511	207.21513	-989.85223	1274.45911	425.31799	
255	2.540							-938.36218	453.13550	372.26941	-908.58551	1472.55859	362.03680							-1049.33337	991.88391	151.01620	-887.70886	86.19977	415.10800	-825.69244	1526.07996	503.96954	-668.84302	912.92804	267.57947	-812.68445	1281.28906	530.81226	-510.25745	1027.69006	457.38968	-569.96277	492.93524	276.64844				-577.29010	196.42310	487.44818	-868.69891	903.41284	248.76471	-612.64490	1293.40405	412.36359	-480.28140	1004.81189	200.02716	-991.00616	1275.56360	417.07062	
256	2.550							-938.23822	452.52850	369.05225	-909.31610	1472.95935	353.65982							-1048.53577	992.95264	142.79146	-887.83588	86.76424	415.80319	-826.86584	1526.62183	495.48074	-670.40448	913.39105	259.54166	-814.78754	1282.56995	522.81079	-512.03168	1028.59839	451.11893	-572.88757	495.58575	266.72684				-578.85907	188.13019	466.51605	-868.89801	904.42780	240.61136	-613.63751	1293.89392	404.78229	-481.28860	1004.75641	192.71220	-992.60382	1276.67737	409.16287	
257	2.560							-938.70166	453.35815	366.75784	-910.01306	1473.72852	345.05139							-1047.34924	994.13953	132.73398	-887.79840	87.08403	415.65390	-827.45105	1527.15649	487.11697	-671.88092	913.82050	253.63295	-815.33051	1282.76709	514.36847	-513.45581	1028.76184	443.80975	-576.41901	497.65811	257.01682				-580.88495	180.35721	443.19199	-870.57410	904.69281	232.60881	-615.43695	1294.30957	397.02658	-481.93420	1005.46448	185.74596	-993.36279	1277.23840	400.37366	
258	2.570							-937.91327	453.59924	364.40759	-910.93121	1473.99976	336.48145							-1046.38147	994.28345	124.80218	-885.97870	84.27953	411.67896	-828.67108	1527.44775	478.61902	-673.42084	914.60254	245.43436	-817.09998	1282.98669	506.27206	-515.02161	1028.94055	437.55051	-579.08252	499.32336	247.61752				-583.66193	171.06642	419.59222	-871.98273	903.60394	226.87259	-616.49646	1294.10962	389.52902	-482.66956	1004.71710	179.15834	-994.46503	1277.90906	391.91080	
259	2.580							-936.99121	453.93295	362.56659	-911.28998	1474.43640	328.09796							-1045.47729	994.55640	115.96047	-885.49634	84.53657	411.12634	-829.46588	1527.46729	470.42200	-675.08081	914.53125	238.32774	-817.69147	1283.22803	497.79932	-516.28223	1029.26233	430.83203	-581.88831	500.81723	238.35411				-583.63818	163.55341	396.79382	-872.99042	903.42236	221.46899	-617.62341	1294.10034	380.35770	-483.20306	1004.64832	173.05002	-995.77460	1278.19653	383.59006	
260	2.590							-936.08081	454.46399	359.80478	-912.09167	1474.53967	319.14444							-1044.35730	994.82599	106.84412	-885.16260	85.13028	411.96848	-830.20288	1527.10742	462.16367	-675.66010	913.76221	231.90704	-819.87048	1283.62109	490.01309	-517.89075	1028.69678	422.39383	-585.38953	501.78357	230.13779				-585.45874	155.33670	371.89282	-873.92322	903.35138	212.90721	-618.57690	1293.98340	372.35223	-483.84488	1004.62311	165.89114	-996.72589	1278.33154	374.84833	
261	2.600							-935.09521	454.74057	356.20850	-912.25800	1474.99561	309.82584							-1043.36584	994.39526	98.12927	-884.97937	86.05162	412.33109	-831.98602	1527.49158	454.46359	-677.14594	913.68634	222.65968	-820.52362	1283.25989	481.45108	-519.22467	1028.78992	415.32095	-587.63434	502.46564	221.40092				-587.13312	147.08171	348.39032	-875.56940	903.45660	205.76285	-619.50818	1293.28955	365.11981	-484.36166	1003.94373	159.10146	-997.80396	1278.20178	366.13330	
262	2.610							-934.03101	454.23929	352.69897	-912.77722	1474.33044	301.67563							-1042.42664	993.94177	89.72615	-884.85706	86.27366	412.63785	-830.34497	1526.21106	445.25479	-678.41949	913.24072	215.76109	-822.19635	1283.13831	473.39328	-520.98956	1028.05896	408.81372	-590.88153	502.40533	212.61299				-588.21039	139.58983	322.95636	-876.48462	902.79523	198.96251	-620.47375	1292.78345	356.98407	-484.43829	1003.44580	151.52345	-998.45148	1277.63562	357.16782	
263	2.620							-933.53973	453.79321	349.24429	-913.27502	1474.01074	292.73633							-1041.11584	993.08453	81.01142	-884.80414	86.40637	412.75473	-831.16803	1525.60364	436.62509	-678.79016	911.64380	209.39615	-822.84320	1282.50964	464.76859	-521.47162	1027.58862	402.12271	-594.01831	501.62186	204.75435				-589.28290	131.21700	297.70624	-877.64349	901.44849	192.38757	-621.70959	1292.16479	349.77078	-484.71060	1002.90546	144.74818	-999.59357	1277.58728	347.51749	
264	2.630							-932.09198	452.18179	345.50989	-913.13019	1473.30164	284.64536							-1040.24524	992.05194	72.16356	-884.75067	86.52095	412.88135	-831.09119	1524.61023	428.05499	-679.75769	910.69354	200.01993	-824.20203	1282.14868	456.60519	-522.35425	1026.82214	394.02921	-597.16565	500.39227	197.65254				-590.79272	123.95280	270.94226	-879.15833	900.06476	185.10429	-622.10187	1291.09399	341.29730	-485.10452	1001.83923	137.26608	-1000.46997	1276.41077	339.73615	
265	2.640							-931.94550	451.30087	341.28384	-913.38733	1472.77576	275.60159							-1039.12329	990.95685	63.02327	-884.49292	86.20846	411.71204	-831.65686	1523.96643	419.59354	-680.30029	909.00586	193.14072	-825.21533	1281.23987	448.39755	-522.22418	1026.01733	387.00769	-599.91656	499.01553	190.92204				-592.15460	117.69704	244.61667	-878.94336	898.85150	178.80562	-622.89880	1290.05786	333.44348	-485.01355	1000.94281	131.30838	-1001.09003	1275.41003	330.24762	
266	2.650							-932.29974	450.31561	336.63434	-913.58997	1472.01709	267.15408							-1038.09790	989.60181	53.86688	-884.47882	86.31097	411.71445	-832.06403	1523.23120	411.00430	-681.13464	907.94818	184.68602	-826.83691	1280.96021	440.47818	-523.31757	1024.48413	379.06906	-602.88660	496.88556	183.26155				-593.71686	111.93098	217.83850	-880.48181	896.97198	172.73650	-623.67883	1289.00977	325.07086	-484.57306	999.73779	123.34904	-1001.98029	1274.00903	321.77426	
267	2.660							-932.22388	449.16513	331.98523	-913.46735	1471.36841	258.28214							-1037.17761	987.55713	45.08834	-884.40808	86.49396	410.99506	-831.99323	1521.98779	402.21719	-681.47247	906.00116	177.16254	-826.60828	1279.25781	431.78568	-524.31958	1024.03125	371.97885	-606.04633	494.53555	177.52351				-595.84332	107.76144	192.30771	-881.18439	895.63794	162.82408	-624.07495	1288.06860	316.33826	-484.09656	998.11963	115.45840	-1002.36963	1272.67542	313.17169	
